<svg width="35" height="35" viewBox="0 0 35 35" fill="none" xmlns="http://www.w3.org/2000/svg">
<g clip-path="url(#clip0)">
<path d="M17.7666 0C8.14844 0 0.198242 7.81348 0.198242 17.4316C0.198242 27.0498 8.14844 35 17.7666 35C27.3848 35 35.1982 27.0498 35.1982 17.4316C35.1982 7.81348 27.3848 0 17.7666 0Z" fill="#FEDB41"/>
<path d="M35.1367 17.4316C35.1367 27.0498 27.3232 35 17.7051 35V0C27.3232 0 35.1367 7.81348 35.1367 17.4316Z" fill="#FFCC33"/>
<path d="M17.7666 4.10156C10.4248 4.10156 4.2998 10.0898 4.2998 17.4316C4.2998 24.7734 10.4248 30.8984 17.7666 30.8984C25.1084 30.8984 31.0967 24.7734 31.0967 17.4316C31.0967 10.0898 25.1084 4.10156 17.7666 4.10156Z" fill="#FEA832"/>
<path d="M10.8965 11.8809H13.8496V13.9863H10.8965V11.8809ZM10.8965 14.7109H13.8496V16.8164H10.8965V14.7109ZM13.1865 8.63379H15.8115V27.3232H13.1865V8.63379ZM14.5332 17.5752H18.457C19.0244 17.5752 19.5166 17.4453 19.9473 17.1787C20.3779 16.9121 20.7061 16.5361 20.9453 16.0508C21.1777 15.5654 21.3008 14.998 21.3008 14.3691C21.3008 13.7266 21.1846 13.1592 20.9453 12.6738C20.7129 12.1885 20.3779 11.8057 19.9473 11.5391C19.5166 11.2725 19.0244 11.1357 18.457 11.1357H14.54V8.64062H18.3682C19.4824 8.64062 20.46 8.87988 21.3145 9.35156C22.1621 9.83008 22.8184 10.5 23.29 11.3613C23.7549 12.2295 23.9873 13.2275 23.9873 14.3691C23.9873 15.5107 23.7549 16.5088 23.29 17.3701C22.8252 18.2314 22.1621 18.8945 21.3145 19.3662C20.4668 19.8379 19.4824 20.0703 18.3682 20.0703H14.54V17.5752H14.5332ZM21.9639 11.8809H25.334V13.9863H21.9639V11.8809ZM21.9639 14.7109H25.334V16.8164H21.9639V14.7109Z" fill="#FFCC33"/>
<path opacity="0.15" d="M31.0352 17.4316C31.0352 24.7734 25.0469 30.8984 17.7051 30.8984V4.10156C25.0469 4.10156 31.0352 10.0898 31.0352 17.4316Z" fill="black"/>
</g>
<defs>
<clipPath id="clip0">
<rect width="35" height="35" fill="white"/>
</clipPath>
</defs>
</svg>
