<svg id="Layer_1" data-name="Layer 1" xmlns="http://www.w3.org/2000/svg" viewBox="0 0 294.49 286.74"><title>logo</title><path d="M384.55,235.71V143a30.33,30.33,0,0,0-30.3-30.3H128.11A30.33,30.33,0,0,0,97.81,143v87.12a17.1,17.1,0,0,0-5.36,15.43l5.36,32.26v91.33a30.33,30.33,0,0,0,30.3,30.3H354.25a30.33,30.33,0,0,0,30.3-30.3V255.77l1.77-8.11A17.15,17.15,0,0,0,384.55,235.71ZM356,143V369.09a1.79,1.79,0,0,1-1.79,1.79H128.11a1.8,1.8,0,0,1-1.8-1.79V143a1.81,1.81,0,0,1,1.8-1.8H354.25A1.8,1.8,0,0,1,356,143Z" transform="translate(-92.22 -112.65)" style="fill:#f2f2f2"/><rect x="19.76" y="15.71" width="256.37" height="256.37" rx="21.5" style="fill:#f2f2f2"/><path d="M370.29,250.64" transform="translate(-92.22 -112.65)" style="fill:#8dc640"/><path d="M252,388.56S227.61,254.71,362.13,247.78v-7.62l-122.74-1.53V388.56Z" transform="translate(-92.22 -112.65)" style="fill:#333;opacity:0.15"/><path d="M226.74,132.6s24.42,133.85-110.09,140.78V281l122.74,1.53V132.6Z" transform="translate(-92.22 -112.65)" style="fill:#333;opacity:0.15"/><rect x="168.98" y="220.39" width="10.26" height="124.27" transform="translate(364.42 -4.24) rotate(90)" style="fill:#283f3b"/><rect x="301.81" y="179.92" width="10.26" height="121.99" transform="translate(455.63 -178.68) rotate(90)" style="fill:#283f3b"/><rect x="143.82" y="19.95" width="10.26" height="113.44" style="fill:#283f3b"/><path d="M354.25,121.2H128.11A21.75,21.75,0,0,0,106.36,143V369.09a21.75,21.75,0,0,0,21.75,21.75H354.25A21.74,21.74,0,0,0,376,369.09V143A21.74,21.74,0,0,0,354.25,121.2Zm10.34,247.89a10.36,10.36,0,0,1-10.34,10.35H128.11a10.36,10.36,0,0,1-10.35-10.35V143a10.36,10.36,0,0,1,10.35-10.35H354.25A10.36,10.36,0,0,1,364.59,143Z" transform="translate(-92.22 -112.65)" style="fill:#283f3b"/><rect x="143.82" y="164.74" width="10.26" height="113.44" style="fill:#283f3b"/><path d="M160.31,281.64,117,288.84a2.59,2.59,0,0,1-.48,0,2.8,2.8,0,0,1-2.77-2.36l-7.2-43.36a2.82,2.82,0,0,1,2.32-3.24l43.36-7.2a2.42,2.42,0,0,1,.47,0,2.8,2.8,0,0,1,2.77,2.36l7.2,43.35A2.82,2.82,0,0,1,160.31,281.64Z" transform="translate(-92.22 -112.65)" style="fill:#fff"/><path d="M168.25,277.45l-7.19-43.35a8.53,8.53,0,0,0-8.4-7.12,8.37,8.37,0,0,0-1.41.11l-43.35,7.2a8.51,8.51,0,0,0-7,9.81l7.2,43.35a8.52,8.52,0,0,0,8.39,7.13,8.39,8.39,0,0,0,1.41-.12l43.35-7.2A8.51,8.51,0,0,0,168.25,277.45Zm-7.94,4.19-1.75.29L117,288.84a2.59,2.59,0,0,1-.48,0,2.8,2.8,0,0,1-2.77-2.36L112.62,280l-6.11-36.85a2.82,2.82,0,0,1,2.32-3.24l43.36-7.2a2.42,2.42,0,0,1,.47,0,2.8,2.8,0,0,1,2.77,2.36l3.82,23v0l3.37,20.34a2.81,2.81,0,0,1-1.57,3A3,3,0,0,1,160.31,281.64Z" transform="translate(-92.22 -112.65)" style="fill:#283f3b"/><polygon points="62.58 127.14 50.49 129.15 51.23 133.57 54.77 133.48 53.61 151.19 53.44 152.98 52.65 151.31 42.19 130.53 37.07 131.38 33.97 154.42 33.76 155.96 26.3 138.2 29.42 137.19 28.68 132.77 16.42 134.81 17.16 139.24 20.15 139.11 32.68 167.35 37.9 166.49 41.34 142.07 41.39 141.54 52.74 164.02 58.21 163.11 60.63 132.38 63.31 131.57 62.58 127.14" style="fill:#283f3b"/><path d="M235.93,243.29l-7.4,43.32a2.81,2.81,0,0,1-2.77,2.35,2.7,2.7,0,0,1-.49,0L182,281.52a2.77,2.77,0,0,1-1.83-1.15,2.83,2.83,0,0,1-.48-2.11l7.4-43.32a2.81,2.81,0,0,1,2.77-2.35,2.72,2.72,0,0,1,.49,0l43.32,7.4A2.82,2.82,0,0,1,235.93,243.29Z" transform="translate(-92.22 -112.65)" style="fill:#fff"/><path d="M234.58,234.41,191.26,227a8,8,0,0,0-1.45-.13,8.53,8.53,0,0,0-8.39,7.09L174,277.31a8.52,8.52,0,0,0,7,9.83l43.32,7.4a9,9,0,0,0,1.45.12,8.53,8.53,0,0,0,8.39-7.09l7.4-43.32A8.53,8.53,0,0,0,234.58,234.41ZM225.76,289a2.7,2.7,0,0,1-.49,0L182,281.52a2.77,2.77,0,0,1-1.83-1.15,2.83,2.83,0,0,1-.48-2.11l7.4-43.32a2.81,2.81,0,0,1,2.77-2.35,2.72,2.72,0,0,1,.49,0l43.32,7.4a2.82,2.82,0,0,1,2.31,3.25l-7.4,43.32A2.81,2.81,0,0,1,225.76,289Z" transform="translate(-92.22 -112.65)" style="fill:#283f3b"/><path d="M222.49,256a16.82,16.82,0,0,0-1.78-6,12.71,12.71,0,0,0-3.92-4.45,14.63,14.63,0,0,0-6-2.35,14,14,0,0,0-6.25.26,13.08,13.08,0,0,0-5.18,2.88,17.05,17.05,0,0,0-3.78,5,23.78,23.78,0,0,0-2.14,6.74l-.08.47a24.06,24.06,0,0,0-.22,7.09,17,17,0,0,0,1.89,6,13.11,13.11,0,0,0,3.94,4.43,13.94,13.94,0,0,0,5.81,2.32,16.65,16.65,0,0,0,2.85.25,13.42,13.42,0,0,0,3.59-.47,12.78,12.78,0,0,0,5.17-2.89,16.36,16.36,0,0,0,3.67-5,25.31,25.31,0,0,0,2.09-6.75l.08-.47A25.67,25.67,0,0,0,222.49,256Zm-6.38,6-.09.52a21.48,21.48,0,0,1-2,6.31,8.67,8.67,0,0,1-3.37,3.66,7.52,7.52,0,0,1-5,.62h0a7,7,0,0,1-4.2-2.2,9.32,9.32,0,0,1-2.11-4.63,19.3,19.3,0,0,1,.09-6.59l.09-.52a18.86,18.86,0,0,1,2.09-6.19,9.31,9.31,0,0,1,3.53-3.66,6.52,6.52,0,0,1,3.23-.82,8.25,8.25,0,0,1,1.46.13,7.39,7.39,0,0,1,4.44,2.23,8.76,8.76,0,0,1,2,4.57A21.07,21.07,0,0,1,216.11,261.92Z" transform="translate(-92.22 -112.65)" style="fill:#283f3b"/><path d="M299.42,238.8v43.95a2.83,2.83,0,0,1-2.82,2.83h-44a2.83,2.83,0,0,1-2.83-2.83V238.8a2.83,2.83,0,0,1,2.83-2.82h44A2.83,2.83,0,0,1,299.42,238.8Z" transform="translate(-92.22 -112.65)" style="fill:#fff"/><path d="M296.6,230.28h-44a8.53,8.53,0,0,0-8.53,8.52v43.95a8.53,8.53,0,0,0,8.53,8.53h44a8.53,8.53,0,0,0,8.52-8.53V238.8A8.53,8.53,0,0,0,296.6,230.28Zm2.82,52.47a2.83,2.83,0,0,1-2.82,2.83h-44a2.83,2.83,0,0,1-2.83-2.83V238.8a2.83,2.83,0,0,1,2.83-2.82h44a2.83,2.83,0,0,1,2.82,2.82Z" transform="translate(-92.22 -112.65)" style="fill:#283f3b"/><path d="M286.58,273.19l-5-10.78.76-.3a8.74,8.74,0,0,0,4-3.31,9.83,9.83,0,0,0,1.39-5.35,10.1,10.1,0,0,0-1.42-5.45,9.11,9.11,0,0,0-4.17-3.45,16.21,16.21,0,0,0-6.43-1.15H260.1v4.44l3.7.64v24.6l-3.7.63v4.44h13.58v-4.44l-3.7-.63v-9.7l5.61-.11,6.63,14.88h6.92v-4.5Zm-16.6-15v-9.55h5.71a6.46,6.46,0,0,1,4.48,1.29,4.55,4.55,0,0,1,1.36,3.51,4.3,4.3,0,0,1-1.4,3.52c-1,.82-2.62,1.23-4.9,1.23Z" transform="translate(-92.22 -112.65)" style="fill:#283f3b"/><path d="M372.4,244.62,363,287.55a2.84,2.84,0,0,1-2.75,2.22,3.27,3.27,0,0,1-.62-.07l-42.93-9.4a2.82,2.82,0,0,1-2.15-3.36L324,234a2.83,2.83,0,0,1,2.75-2.22,2.54,2.54,0,0,1,.61.07l42.93,9.4A2.83,2.83,0,0,1,372.4,244.62Z" transform="translate(-92.22 -112.65)" style="fill:#fff"/><path d="M371.46,235.69l-42.93-9.4a8.27,8.27,0,0,0-1.83-.2,8.54,8.54,0,0,0-8.32,6.7L309,275.72a8.53,8.53,0,0,0,6.5,10.15l42.93,9.4a8.93,8.93,0,0,0,1.84.2,8.54,8.54,0,0,0,8.32-6.71l9.4-42.93A8.52,8.52,0,0,0,371.46,235.69Zm-11.21,54.08a3.27,3.27,0,0,1-.62-.07l-42.93-9.4a2.82,2.82,0,0,1-2.15-3.36L324,234a2.83,2.83,0,0,1,2.75-2.22,2.54,2.54,0,0,1,.61.07l42.93,9.4a2.83,2.83,0,0,1,2.16,3.36L363,287.55A2.84,2.84,0,0,1,360.25,289.77Z" transform="translate(-92.22 -112.65)" style="fill:#283f3b"/><path d="M357.81,254.62a15,15,0,0,0-4-7.09,14.77,14.77,0,0,0-7.44-3.91l-13.47-3L332,245l3.48,1.41-5.26,24-3.75-.17-.95,4.33,13.7,3a16.64,16.64,0,0,0,3.52.39,13.28,13.28,0,0,0,4.84-.88,14.88,14.88,0,0,0,6.46-4.87,19.91,19.91,0,0,0,3.63-8l.15-.68A19.45,19.45,0,0,0,357.81,254.62Zm-6,7.58-.16.73a15.35,15.35,0,0,1-2.41,5.65,10.27,10.27,0,0,1-4,3.46,7.72,7.72,0,0,1-5.08.46l-3.82-.83,5.2-23.77,3.83.83a8.1,8.1,0,0,1,4.44,2.5A9.81,9.81,0,0,1,352,256,15.55,15.55,0,0,1,351.77,262.2Z" transform="translate(-92.22 -112.65)" style="fill:#283f3b"/><path d="M202.62,213c-10.09,8.23-41.58,8.23-51.46,0-10.09-8.24-9.06-43.43,0-52.7s42.4-9.26,51.46,0S212.7,204.71,202.62,213Z" transform="translate(-92.22 -112.65)" style="fill:#8dc640"/><path d="M196.44,187a3.69,3.69,0,0,1-3.7,3.71H180.39V203.1a3.71,3.71,0,0,1-7.41,0V190.75H160.63a3.71,3.71,0,1,1,0-7.41H173V171a3.71,3.71,0,1,1,7.41,0v12.35h12.35A3.69,3.69,0,0,1,196.44,187Z" transform="translate(-92.22 -112.65)" style="fill:#fff"/><path d="M202.7,212.88c-8.07,6.58-29.84,7.9-43.28,4,37.57-15.53,42.15-47.55,42.66-57.23.21.18.43.38.62.58C211.75,169.44,212.78,204.64,202.7,212.88Z" transform="translate(-92.22 -112.65)" style="fill:#333;opacity:0.15"/><path d="M328.6,213c-10.09,8.23-41.58,8.23-51.46,0-10.09-8.24-9.06-43.43,0-52.7s42.4-9.26,51.46,0S338.68,204.71,328.6,213Z" transform="translate(-92.22 -112.65)" style="fill:#f15a24"/><path d="M323,187.9a3.68,3.68,0,0,1-3.7,3.7H287.18a3.71,3.71,0,1,1,0-7.41h32.11A3.69,3.69,0,0,1,323,187.9Z" transform="translate(-92.22 -112.65)" style="fill:#fff"/><path d="M202.62,360.88c-10.09,8.23-41.58,8.23-51.46,0-10.09-8.24-9.06-43.44,0-52.7s42.4-9.26,51.46,0S212.7,352.64,202.62,360.88Z" transform="translate(-92.22 -112.65)" style="fill:#ed1e79"/><path d="M190.65,348.09a3.68,3.68,0,0,1-5.24,0l-8.73-8.73L168,348.09a3.71,3.71,0,1,1-5.24-5.24l8.73-8.73-8.73-8.74a3.71,3.71,0,1,1,5.24-5.24l8.73,8.74,8.73-8.74a3.71,3.71,0,0,1,5.24,5.24l-8.73,8.74,8.73,8.73A3.68,3.68,0,0,1,190.65,348.09Z" transform="translate(-92.22 -112.65)" style="fill:#fff"/><path d="M334.92,360.88c-10.09,8.23-41.58,8.23-51.46,0-10.08-8.24-9.06-43.44,0-52.7s42.4-9.26,51.46,0S345,352.64,334.92,360.88Z" transform="translate(-92.22 -112.65)" style="fill:#29abe2"/><path d="M329.32,335.83a3.69,3.69,0,0,1-3.71,3.7H293.5a3.71,3.71,0,1,1,0-7.41h32.11A3.7,3.7,0,0,1,329.32,335.83Z" transform="translate(-92.22 -112.65)" style="fill:#fff"/><circle cx="216.97" cy="211.2" r="4.85" style="fill:#fff"/><circle cx="216.97" cy="235.15" r="4.85" style="fill:#fff"/><path d="M328.6,213c-8.07,6.58-29.84,7.9-43.28,4,37.57-15.53,42.15-47.54,42.66-57.23.21.19.43.38.62.58C337.65,169.52,338.68,204.72,328.6,213Z" transform="translate(-92.22 -112.65)" style="fill:#333;opacity:0.15"/><path d="M202.62,360.87c-8.07,6.59-29.84,7.91-43.28,4,37.57-15.53,42.15-47.55,42.66-57.23.21.18.42.38.62.58C211.67,317.44,212.7,352.64,202.62,360.87Z" transform="translate(-92.22 -112.65)" style="fill:#333;opacity:0.15"/><path d="M334.87,360.87c-8.07,6.59-29.84,7.91-43.28,4,37.57-15.53,42.15-47.55,42.66-57.23.21.18.43.38.62.58C343.92,317.44,345,352.64,334.87,360.87Z" transform="translate(-92.22 -112.65)" style="fill:#333;opacity:0.15"/><path d="M161,281.67l-2.51.52-41.6,6.91a2.42,2.42,0,0,1-.47,0,2.81,2.81,0,0,1-2.78-2.36l-1.08-6.51s45.44-4.33,46.62-22l0,.05,3.37,20.33A2.84,2.84,0,0,1,161,281.67Z" transform="translate(-92.22 -112.65)" style="fill:#333;opacity:0.15"/><path d="M226,291.28l-2.53-.33L182,283.79a2.37,2.37,0,0,1-.46-.11,2.83,2.83,0,0,1-1.85-3.15l1.12-6.5s44.34,10.85,51.27-5.44v0L228.52,289A2.83,2.83,0,0,1,226,291.28Z" transform="translate(-92.22 -112.65)" style="fill:#333;opacity:0.15"/><path d="M297.34,285.8l-2.55.09-42.18-.18a2.56,2.56,0,0,1-.47,0,2.82,2.82,0,0,1-2.34-2.79l0-6.6s45.52,3.37,49.66-13.85v.05l-.09,20.61A2.83,2.83,0,0,1,297.34,285.8Z" transform="translate(-92.22 -112.65)" style="fill:#333;opacity:0.15"/><path d="M360.39,289.77l-2.52-.45-41.17-9.11a2.44,2.44,0,0,1-.46-.14,2.81,2.81,0,0,1-1.69-3.23L316,270.4s43.78,12.93,51.47-3v.05L363,287.56A2.85,2.85,0,0,1,360.39,289.77Z" transform="translate(-92.22 -112.65)" style="fill:#333;opacity:0.15"/></svg>