<svg width="35" height="35" viewBox="0 0 35 35" fill="none" xmlns="http://www.w3.org/2000/svg">
<path d="M9.43371 34.9999H0.000183105V31.1034C0.000183105 30.8391 0.214421 30.6249 0.478699 30.6249H9.43371V34.9999Z" fill="#FFF292"/>
<path d="M1.40896 30.6247V35H0.000488281V31.1032C0.000488281 30.8389 0.214727 30.6247 0.479004 30.6247H1.40896Z" fill="#F9E77D"/>
<path d="M18.1837 34.9999H8.75012V26.7285C8.75012 26.4642 8.96436 26.2499 9.22864 26.2499H18.1837V34.9999Z" fill="#AEE69C"/>
<path d="M10.1585 26.25V35H8.75006V26.7285C8.75006 26.4642 8.9643 26.25 9.22858 26.25H10.1585Z" fill="#89DAA4"/>
<path d="M26.9336 34.9999H17.5V22.3535C17.5 22.0892 17.7143 21.8749 17.9785 21.8749H26.9336V34.9999Z" fill="#9BD8F9"/>
<path d="M18.9085 21.8747V35H17.5V22.3532C17.5 22.0889 17.7143 21.8747 17.9785 21.8747H18.9085Z" fill="#73C3F9"/>
<path d="M16.2067 10.9376H23.5598C23.824 10.9376 24.0383 10.7233 24.0383 10.459V4.37512H16.2067C15.8245 4.37512 15.5965 4.80107 15.8086 5.11908L17.5 7.65637L15.8086 10.1937C15.5965 10.5116 15.8245 10.9376 16.2067 10.9376Z" fill="#F25A74"/>
<path d="M18.9085 7.65631L16.7212 10.9373H16.2069C15.8247 10.9373 15.5967 10.5113 15.8088 10.1933L17.5001 7.65631L15.8088 5.11929C15.5968 4.80128 15.8247 4.37534 16.2069 4.37534H16.7212L18.9085 7.65631Z" fill="#E83D5A"/>
<path d="M22.3536 8.75005H30.2148V2.18762H22.3536C22.0893 2.18762 21.8751 2.40186 21.8751 2.66614V8.27154C21.8751 8.53582 22.0893 8.75005 22.3536 8.75005Z" fill="#F25A74"/>
<path d="M23.2832 2.18729V8.74999H22.3532C22.0889 8.74999 21.8747 8.53575 21.8747 8.27148V2.6658C21.8747 2.40152 22.0889 2.18729 22.3532 2.18729H23.2832Z" fill="#E83D5A"/>
<path d="M31.7187 18.1901H29.5312V0.479523C29.5312 0.215245 29.7454 0.00100708 30.0097 0.00100708H31.2402C31.5045 0.00100708 31.7187 0.215245 31.7187 0.479523V18.1901Z" fill="#46778C"/>
<path d="M30.5874 0V18.1892H29.531V0.478516C29.531 0.214238 29.7452 0 30.0095 0H30.5874Z" fill="#3A6684"/>
<path d="M34.9999 34.9999H26.25V17.9785C26.25 17.7142 26.4642 17.5 26.7285 17.5H34.5214C34.7857 17.5 34.9999 17.7142 34.9999 17.9785V34.9999Z" fill="#F9D264"/>
<path d="M27.6585 17.5V35H26.2501V17.9785C26.2501 17.7142 26.4643 17.5 26.7286 17.5H27.6585Z" fill="#EFC356"/>
</svg>
