<svg width="35" height="35" viewBox="0 0 35 35" fill="none" xmlns="http://www.w3.org/2000/svg">
<g clip-path="url(#clip0)">
<path d="M35 17.5C35 22.1559 33.1925 26.5379 29.9107 29.8389C26.6308 33.1372 22.2646 34.9698 17.6148 34.9992C17.6033 34.9992 17.5908 35 17.5793 34.9992C17.5534 35 17.5267 35 17.5 35C12.8262 35 8.43143 33.1802 5.12615 29.8744C1.82034 26.5694 0 22.1743 0 17.5C0 12.8257 1.82034 8.43143 5.12615 5.12562C8.43143 1.82034 12.8262 0 17.5 0C17.5267 0 17.5526 0 17.5793 0.00080109C17.5916 0.00080109 17.6039 0.00080109 17.6162 0.00133514C22.2654 0.0315094 26.6313 1.86359 29.9107 5.16193C33.1925 8.46294 35 12.8446 35 17.5Z" fill="#FF771A"/>
<path d="M35 17.5C35 22.1559 33.1925 26.5379 29.9107 29.8389C26.6308 33.1372 22.2646 34.9698 17.6149 34.9992C17.6034 34.9992 17.5908 35 17.5793 34.9992V0.000801086C17.5916 0.000801086 17.6039 0.000801086 17.6162 0.00133514C22.2654 0.0315094 26.6314 1.86359 29.9107 5.16193C33.1925 8.46294 35 12.8446 35 17.5V17.5Z" fill="#FF4A05"/>
<path d="M17.5865 7.36946C17.6151 7.36893 17.5617 7.36946 17.5865 7.36946V7.36946Z" fill="black"/>
<path d="M20.5024 10.2854V18.1083C20.5024 19.7163 19.1945 21.0245 17.5868 21.0245H17.5793C16.8281 21.0026 16.0527 20.6993 15.5245 20.1708C14.9741 19.6199 14.6705 18.8877 14.6705 18.1083V10.2854C14.6705 8.69526 15.9907 7.41486 17.5793 7.36919H17.5868C19.1945 7.36919 20.5024 8.67764 20.5024 10.2854V10.2854Z" fill="white"/>
<path d="M17.5865 21.0248C17.5617 21.0248 17.6113 21.0253 17.5865 21.0248V21.0248Z" fill="black"/>
<path d="M20.3466 24.7215C20.3466 26.2439 19.1086 27.4818 17.5863 27.4818H17.5793C16.061 27.4783 14.8265 26.2417 14.8265 24.7215C14.8265 23.2019 16.061 21.9653 17.5793 21.9618H17.5863C19.1086 21.9618 20.3466 23.1997 20.3466 24.7215Z" fill="white"/>
<path d="M20.3466 24.7215C20.3466 26.2439 19.1086 27.4818 17.5863 27.4818H17.5793V21.9618H17.5863C19.1086 21.9618 20.3466 23.1997 20.3466 24.7215Z" fill="#DDEBF0"/>
<path d="M20.5025 10.2854V18.1083C20.5025 19.7163 19.1946 21.0245 17.5868 21.0245H17.5793V7.36919H17.5868C19.1946 7.36919 20.5025 8.67764 20.5025 10.2854V10.2854Z" fill="#DDEBF0"/>
</g>
<defs>
<clipPath id="clip0">
<rect width="35" height="35" fill="white"/>
</clipPath>
</defs>
</svg>
